<?xml version="1.0" encoding="utf-8"?>
<!-- Generator: Adobe Illustrator 19.1.0, SVG Export Plug-In . SVG Version: 6.00 Build 0)  -->
<svg version="1.1" id="Layer_1" xmlns="http://www.w3.org/2000/svg" xmlns:xlink="http://www.w3.org/1999/xlink" x="0px" y="0px"
	 viewBox="-282 399.9 29.9 42" style="enable-background:new -282 399.9 29.9 42;" xml:space="preserve">
<style type="text/css">
	.st0{fill:#00A9D2;}
	.st1{fill:none;}
	.st2{fill:#FFFFFF;}
</style>
<g>
	<g>
		<path class="st0" d="M-252.1,414.8c0,8.3-15,27-15,27s-15-18.7-15-27s6.6-15,15-15C-258.7,399.9-252.1,406.5-252.1,414.8z"/>
		<g>
			<path class="st1" d="M-272.2,417.7"/>
			<path class="st1" d="M-263.5,409"/>
			<path class="st1" d="M-272.2,409"/>
		</g>
		<path class="st1" d="M-262.5,411.1"/>
		<path class="st1" d="M-265.3,408.1"/>
		<path class="st1" d="M-273,415.5"/>
		<path class="st1" d="M-270.2,418.4"/>
	</g>
	<polygon class="st2" points="-264.9,413.9 -264.9,408.8 -262.5,407 -262.5,406.1 -271.6,406.1 -271.6,407 -269.2,408.8 
		-269.2,413.9 -272.6,415.7 -272.6,417.8 -267.7,417.8 -267.7,424.7 -267,427.7 -266.4,424.7 -266.4,417.8 -261.5,417.8 
		-261.5,415.7 	"/>
</g>
<text transform="matrix(1 0 0 1 15.6401 820.8352)" style="font-family:'MyriadPro-Regular'; font-size:12px;">Livework</text>
</svg>
